Coordinates
version=1
nRows=19
nColumns=34
inDegrees=yes

Units are S.I. units (second, meters, Newtons, ...)
If the header above contains a line with 'inDegrees', this indicates whether rotational values are in degrees (yes) or radians (no).

endheader
time	pelvis_tilt	pelvis_list	pelvis_rotation	pelvis_tx	pelvis_ty	pelvis_tz	hip_flexion_r	hip_adduction_r	hip_rotation_r	knee_angle_r	ankle_angle_r	subtalar_angle_r	mtp_angle_r	hip_flexion_l	hip_adduction_l	hip_rotation_l	knee_angle_l	ankle_angle_l	subtalar_angle_l	mtp_angle_l	lumbar_extension	lumbar_bending	lumbar_rotation	arm_flex_r	arm_add_r	arm_rot_r	elbow_flex_r	pro_sup_r	arm_flex_l	arm_add_l	arm_rot_l	elbow_flex_l	pro_sup_l
      1.48333330	     -6.12879476	     -0.60398133	     -3.26364284	     -0.07418000	      1.26332333	     -0.07153639	      4.95770864	     -0.44094327	      2.96711834	      2.14488105	      9.37782345	     -4.10416555	      0.00000000	      5.81698710	     -2.39740141	     -3.17262309	      5.08109800	     10.26215176	     -3.92358325	      0.00000000	     -2.45452656	     -0.35667105	      2.18842289	     -8.27206897	     -9.80654423	      2.74513827	     25.23936107	     83.51811438	     -8.07700518	    -10.68789702	      7.83376115	     19.03437146	     82.01083820
      1.50000000	     -6.31760927	     -0.57495018	     -3.08719911	     -0.07638970	      1.26302935	     -0.07086308	      5.38518405	     -0.45284679	      2.81697662	      2.51908885	      9.44378820	     -4.27011110	      0.00000000	      6.36037765	     -2.39996387	     -3.07161799	      5.75569258	     10.34180465	     -4.20262819	      0.00000000	     -2.80388469	     -0.40297255	      2.23859381	     -8.96981437	     -9.88011492	      2.52985625	     24.91054523	     83.49256704	     -8.65809188	    -10.97895850	      7.52460336	     18.77390352	     81.95278704
      1.51666670	     -6.72373027	     -0.46576770	     -2.92681157	     -0.07686052	      1.26263244	     -0.07072839	      6.11809514	     -0.53098530	      2.70136833	      3.00649491	      9.60418294	     -4.29421714	      0.00000000	      7.17234324	     -2.32638558	     -2.95137435	      6.42288015	     10.34358621	     -4.49997649	      0.00000000	     -2.94165886	     -0.51129249	      2.22093093	     -9.74825189	     -9.86768791	      2.35343906	     24.61366001	     83.43239294	     -9.36858906	    -11.25091149	      7.30240438	     18.50823021	     81.87996170
      1.53333330	     -6.75940432	     -0.42895659	     -2.76447058	     -0.07813518	      1.26151837	     -0.07109117	      6.31149656	     -0.56639160	      2.53910616	      3.28365367	      9.62036922	     -4.39140342	      0.00000000	      7.55260387	     -2.33535269	     -3.18695582	      7.05349659	     10.29720991	     -4.69308690	      0.00000000	     -3.52898697	     -0.57157726	      2.22161665	    -10.35108704	     -9.95757928	      2.33890191	     24.39422703	     83.41637725	     -9.95546337	    -11.43542235	      7.28211506	     18.28160469	     81.86369180
      1.55000000	     -7.42080125	     -0.36964397	     -2.51325782	     -0.07994632	      1.26270530	     -0.07184658	      7.48640153	     -0.61627634	      2.29065692	      4.04650136	      9.90026721	     -4.53278447	      0.00000000	      8.94192387	     -2.31656966	     -2.90549176	      8.10405913	     10.50116134	     -5.15752726	      0.00000000	     -3.79150329	     -0.54538005	      2.12476060	    -10.87264864	     -9.97464366	      2.37586537	     24.29632777	     83.30960280	    -10.46733009	    -11.52718958	      7.34971136	     18.13748421	     81.77765022
      1.56666670	     -8.15157331	     -0.25055959	     -2.19904131	     -0.08022817	      1.26339191	     -0.07234036	      8.55654332	     -0.75605244	      1.96569737	      4.47874593	     10.04451440	     -4.45791621	      0.00000000	     10.34594046	     -2.19999863	     -2.80337258	      9.08016202	     10.21197712	     -5.68933493	      0.00000000	     -3.84822956	     -0.57402950	      1.94319549	    -11.46321017	    -10.05775832	      2.59281810	     24.29545249	     83.10071434	    -11.29451332	    -11.54295141	      7.68270248	     18.03326491	     81.63049642
      1.58333330	     -8.31368023	     -0.18525127	     -1.91192723	     -0.08144071	      1.26539094	     -0.07317630	      9.03536947	     -0.89061075	      1.71790201	      4.93560083	     10.06383764	     -4.50818659	      0.00000000	     11.16148766	     -2.16323993	     -3.11468085	     10.12696590	     10.07355246	     -5.91770384	      0.00000000	     -4.86129479	     -0.50757685	      1.94999262	    -11.80857903	    -10.01407529	      2.71616433	     24.20070604	     83.04817541	    -11.65475664	    -11.47923118	      7.82788016	     17.99080050	     81.59718105
      1.60000000	     -9.31835392	     -0.09913421	     -1.57057701	     -0.08322720	      1.26266380	     -0.07366989	     10.63260413	     -1.06924819	      1.20556215	      5.64326125	     10.45289693	     -4.31691184	      0.00000000	     13.07019550	     -2.06655623	     -2.81263218	     11.51485866	     10.13252525	     -6.50865746	      0.00000000	     -4.88520040	     -0.38069405	      1.65317099	    -12.32952618	    -10.18413995	      3.41378868	     24.62720949	     82.74876067	    -12.48963725	    -11.44886002	      8.70954138	     18.67459990	     81.44118475
      1.61666670	     -9.56310437	      0.02743448	     -1.37191214	     -0.08572402	      1.26129321	     -0.07458099	     11.43269507	     -1.28606205	      1.01811170	      6.24570310	     10.50854178	     -4.32953352	      0.00000000	     14.07557006	     -1.96384891	     -3.06355696	     12.70456475	     10.06177701	     -6.69864205	      0.00000000	     -6.18547176	     -0.34028540	      1.58290368	    -12.37994804	    -10.02979618	      3.65816724	     24.67080805	     82.68033782	    -12.50850434	    -11.33444499	      8.96945151	     18.88495900	     81.40816293
      1.63333330	    -10.55926485	      0.15146170	     -1.18217945	     -0.09063046	      1.26030977	     -0.07605838	     13.36342235	     -1.54063958	      0.66975165	      7.42499869	     11.10485588	     -4.09880538	      0.00000000	     16.14760766	     -1.81413242	     -2.81019562	     14.19190084	      9.95108492	     -7.56895566	      0.00000000	     -6.71086384	     -0.30338776	      1.02222082	    -12.44313610	    -10.66235156	      7.44327385	     25.79047862	     81.10251079	    -13.47797537	    -11.87977384	     13.16789720	     21.79477628	     80.43291889
      1.65000000	    -11.26170634	      0.16860076	     -0.88645651	     -0.09302892	      1.26148417	     -0.07698672	     14.90037034	     -1.70263733	      0.20668968	      8.52317094	     11.17671179	     -4.15461355	      0.00000000	     18.02465581	     -1.76215101	     -2.70921877	     15.78158500	     10.49205505	     -7.45070566	      0.00000000	     -7.58638176	     -0.04625844	      0.76228314	    -12.13388674	    -11.23371538	     12.67794005	     26.21948656	     74.23411914	    -12.98982816	    -12.17430196	     19.78213005	     22.38540038	     74.49606556
      1.66666670	    -12.14735606	      0.31567521	     -0.78297435	     -0.09658201	      1.25655370	     -0.07636948	     16.99049102	     -1.95364296	      0.08752186	     10.19118103	     11.80077492	     -4.16191389	      0.00000000	     20.15126815	     -1.65156967	     -2.79375548	     17.47756902	     11.16304383	     -7.23870342	      0.00000000	     -8.45253077	     -0.00240370	      0.21736061	    -11.80415996	    -11.06387189	     12.57014074	     27.09183291	     73.77847998	    -13.14042115	    -11.77872582	     19.88528868	     23.21982525	     74.02186398
      1.68333330	    -13.11921414	      0.41482069	     -0.65663535	     -0.09968380	      1.24969282	     -0.07720408	     19.40962500	     -2.20605455	     -0.09604257	     12.24575505	     12.48732983	     -4.37743490	      0.00000000	     22.55909729	     -1.60760594	     -2.86192429	     19.52127714	     12.04662894	     -7.00952948	      0.00000000	     -9.52318032	      0.09080895	     -0.18369527	    -11.59719400	    -11.05295627	     13.05420139	     28.29043901	     73.44115399	    -13.17397155	    -11.51540542	     20.52593188	     24.79004183	     73.66437952
      1.70000000	    -14.03646347	      0.48641480	     -0.47088925	     -0.10036885	      1.24414302	     -0.07639164	     21.88153418	     -2.46059423	     -0.30041271	     14.58090713	     13.33468519	     -4.61900718	      0.00000000	     25.05328939	     -1.65226563	     -2.91440740	     21.94156540	     13.15731078	     -6.70545446	      0.00000000	    -10.74198648	      0.13724344	     -0.43795443	    -11.22353500	    -10.95748707	     13.87391640	     29.43597071	     73.18977011	    -13.10367843	    -11.35366451	     21.40286488	     26.35227554	     73.35798547
      1.71666670	    -14.79994037	      0.45428972	     -0.23109101	     -0.10486299	      1.23968856	     -0.07693709	     24.36796044	     -2.65444342	     -0.69396645	     17.42823045	     14.23980625	     -5.07252560	      0.00000000	     27.59585483	     -1.87300479	     -3.10628067	     24.66646635	     14.22531837	     -6.54995456	      0.00000000	    -12.17694081	      0.20969698	     -0.49476413	    -10.82104834	    -10.75875968	     14.93470809	     30.26517479	     72.99012948	    -12.68884422	    -11.23734086	     22.40772329	     27.77863471	     73.08765078
      1.73333330	    -15.35316059	      0.35404774	      0.03076454	     -0.10345125	      1.22944387	     -0.07609968	     26.84831434	     -2.83800975	     -1.07417077	     20.75083482	     15.61844317	     -5.20645044	      0.00000000	     29.95309825	     -2.25921774	     -3.46540219	     27.60879085	     15.47759998	     -6.37451449	      0.00000000	    -13.61580231	      0.29472454	     -0.58377471	    -10.35464774	    -10.64760133	     15.98916408	     31.27146416	     72.80401462	    -12.19011268	    -11.22625048	     23.37523207	     28.98402295	     72.80546274
      1.75000000	    -15.74491496	      0.30848054	      0.06551137	     -0.10570505	      1.22536531	     -0.07687843	     29.31816799	     -3.17155304	     -1.50743971	     24.18728775	     16.85598300	     -5.19305185	      0.00000000	     32.17728184	     -2.71974208	     -3.97802925	     30.87227205	     16.42198528	     -6.38917064	      0.00000000	    -15.25683959	      0.35656251	     -0.79349101	     -9.50819763	    -10.59754966	     17.11663664	     31.98623043	     72.59621146	    -11.44951274	    -11.04038816	     24.41484653	     29.27583935	     72.44487452
      1.76666670	    -15.98475539	      0.23130039	      0.05939075	     -0.10878795	      1.21677426	     -0.07699749	     31.74599870	     -3.46021466	     -1.99323444	     27.77124464	     18.41536076	     -4.79889363	      0.00000000	     34.45739140	     -3.23659899	     -4.41098592	     34.42061583	     17.52597075	     -6.45462676	      0.00000000	    -17.11280666	      0.46103725	     -0.84869228	     -8.34831352	    -10.64023597	     18.22235272	     32.57132765	     72.42380674	    -10.42341669	    -10.84648773	     25.20737865	     29.09334797	     72.04635796
      1.78333330	    -16.27024129	      0.06916996	      0.06656919	     -0.10933239	      1.20845395	     -0.07644855	     34.25651416	     -3.71995365	     -2.46939028	     31.54916207	     20.09739757	     -4.70606882	      0.00000000	     36.83848015	     -3.88838333	     -4.69317681	     38.09528452	     18.84704505	     -6.33795536	      0.00000000	    -19.01879668	      0.65350176	     -1.07076184	     -6.79167857	    -10.82925890	     19.20011789	     33.24087893	     72.26002315	     -9.03083085	    -10.91649119	     25.95699682	     28.96266322	     71.66768165
